<svg width="114" height="19" viewBox="0 0 114 19" fill="none" xmlns="http://www.w3.org/2000/svg">
<path d="M9.41016 18H4.78125V4.65234H0.597656V0.867188H13.582V4.65234H9.41016V18ZM21.7383 4.48828C23.0273 4.48828 24.1406 4.71484 25.0781 5.16797C26.0156 5.61328 26.7383 6.28516 27.2461 7.18359C27.7539 8.08203 28.0078 9.20703 28.0078 10.5586V12.5977H19.8164C19.8555 13.293 20.1133 13.8633 20.5898 14.3086C21.0742 14.7539 21.7852 14.9766 22.7227 14.9766C23.5508 14.9766 24.3086 14.8945 24.9961 14.7305C25.6914 14.5664 26.4062 14.3125 27.1406 13.9688V17.2617C26.5 17.5977 25.8008 17.8438 25.043 18C24.2852 18.1562 23.3281 18.2344 22.1719 18.2344C20.8359 18.2344 19.6406 17.9961 18.5859 17.5195C17.5312 17.043 16.6992 16.3047 16.0898 15.3047C15.4883 14.3047 15.1875 13.0195 15.1875 11.4492C15.1875 9.85547 15.4609 8.54688 16.0078 7.52344C16.5547 6.49219 17.3203 5.73047 18.3047 5.23828C19.2891 4.73828 20.4336 4.48828 21.7383 4.48828ZM21.9023 7.60547C21.3633 7.60547 20.9102 7.77734 20.543 8.12109C20.1836 8.45703 19.9727 8.98828 19.9102 9.71484H23.8477C23.8398 9.32422 23.7617 8.96875 23.6133 8.64844C23.4648 8.32812 23.2461 8.07422 22.957 7.88672C22.6758 7.69922 22.3242 7.60547 21.9023 7.60547ZM37.0781 4.48828C38.7578 4.48828 40.0703 4.90625 41.0156 5.74219C41.9609 6.57031 42.4336 7.75391 42.4336 9.29297V18H39.2578L38.3789 16.2422H38.2852C37.9102 16.7109 37.5234 17.0938 37.125 17.3906C36.7344 17.6797 36.2852 17.8906 35.7773 18.0234C35.2695 18.1641 34.6484 18.2344 33.9141 18.2344C33.1484 18.2344 32.4609 18.0781 31.8516 17.7656C31.2422 17.4531 30.7617 16.9805 30.4102 16.3477C30.0586 15.7148 29.8828 14.9141 29.8828 13.9453C29.8828 12.5234 30.375 11.4688 31.3594 10.7812C32.3438 10.0938 33.7695 9.70703 35.6367 9.62109L37.8516 9.55078V9.36328C37.8516 8.76953 37.7031 8.34766 37.4062 8.09766C37.1172 7.84766 36.7266 7.72266 36.2344 7.72266C35.7109 7.72266 35.125 7.81641 34.4766 8.00391C33.8359 8.18359 33.1914 8.41797 32.543 8.70703L31.2188 5.68359C31.9844 5.29297 32.8516 4.99609 33.8203 4.79297C34.7891 4.58984 35.875 4.48828 37.0781 4.48828ZM37.875 12.0703L36.8203 12.1172C35.9766 12.1484 35.3828 12.2969 35.0391 12.5625C34.7031 12.8203 34.5352 13.1914 34.5352 13.6758C34.5352 14.1289 34.6562 14.4648 34.8984 14.6836C35.1406 14.8945 35.4609 15 35.8594 15C36.4141 15 36.8867 14.8242 37.2773 14.4727C37.6758 14.1211 37.875 13.6641 37.875 13.1016V12.0703ZM61.7578 4.48828C63.2734 4.48828 64.4297 4.875 65.2266 5.64844C66.0312 6.42188 66.4336 7.66016 66.4336 9.36328V18H61.8516V10.7812C61.8516 9.77344 61.7148 9.07422 61.4414 8.68359C61.1758 8.28516 60.7773 8.08594 60.2461 8.08594C59.5039 8.08594 58.9883 8.41016 58.6992 9.05859C58.418 9.70703 58.2773 10.625 58.2773 11.8125V18H53.6836V10.7812C53.6836 10.1406 53.625 9.625 53.5078 9.23438C53.3984 8.83594 53.2305 8.54688 53.0039 8.36719C52.7773 8.17969 52.4922 8.08594 52.1484 8.08594C51.625 8.08594 51.2148 8.24609 50.918 8.56641C50.6289 8.87891 50.4258 9.33984 50.3086 9.94922C50.1914 10.5586 50.1328 11.3047 50.1328 12.1875V18H45.5508V4.72266H49.0078L49.6758 6.36328H49.8047C50.0391 6.00391 50.3398 5.68359 50.707 5.40234C51.082 5.12109 51.5234 4.89844 52.0312 4.73438C52.5469 4.57031 53.1328 4.48828 53.7891 4.48828C54.7656 4.48828 55.5703 4.65234 56.2031 4.98047C56.8359 5.30859 57.3516 5.76172 57.75 6.33984H57.8906C58.3125 5.74609 58.8555 5.28906 59.5195 4.96875C60.1836 4.64844 60.9297 4.48828 61.7578 4.48828ZM76.4531 18V0.867188H79.2656V18H76.4531ZM90.2695 4.78125C91.7305 4.78125 92.8672 5.16016 93.6797 5.91797C94.5 6.66797 94.9102 7.875 94.9102 9.53906V18H92.1562V10.0547C92.1562 9.04688 91.9492 8.29297 91.5352 7.79297C91.1211 7.28516 90.4805 7.03125 89.6133 7.03125C88.3555 7.03125 87.4805 7.41797 86.9883 8.19141C86.5039 8.96484 86.2617 10.0859 86.2617 11.5547V18H83.5078V5.02734H85.6523L86.0391 6.78516H86.1914C86.4727 6.33203 86.8203 5.96094 87.2344 5.67188C87.6562 5.375 88.125 5.15234 88.6406 5.00391C89.1641 4.85547 89.707 4.78125 90.2695 4.78125ZM103.992 18.2344C102.766 18.2344 101.703 17.9961 100.805 17.5195C99.9062 17.043 99.2148 16.3125 98.7305 15.3281C98.2461 14.3438 98.0039 13.0938 98.0039 11.5781C98.0039 10 98.2695 8.71094 98.8008 7.71094C99.332 6.71094 100.066 5.97266 101.004 5.49609C101.949 5.01953 103.031 4.78125 104.25 4.78125C105.023 4.78125 105.723 4.85938 106.348 5.01562C106.98 5.16406 107.516 5.34766 107.953 5.56641L107.133 7.76953C106.656 7.57422 106.168 7.41016 105.668 7.27734C105.168 7.14453 104.688 7.07812 104.227 7.07812C103.469 7.07812 102.836 7.24609 102.328 7.58203C101.828 7.91797 101.453 8.41797 101.203 9.08203C100.961 9.74609 100.84 10.5703 100.84 11.5547C100.84 12.5078 100.965 13.3125 101.215 13.9688C101.465 14.6172 101.836 15.1094 102.328 15.4453C102.82 15.7734 103.426 15.9375 104.145 15.9375C104.855 15.9375 105.492 15.8516 106.055 15.6797C106.617 15.5078 107.148 15.2852 107.648 15.0117V17.4023C107.156 17.6836 106.629 17.8906 106.066 18.0234C105.504 18.1641 104.812 18.2344 103.992 18.2344ZM110.297 16.5469C110.297 15.9062 110.461 15.457 110.789 15.1992C111.125 14.9336 111.531 14.8008 112.008 14.8008C112.484 14.8008 112.891 14.9336 113.227 15.1992C113.57 15.457 113.742 15.9062 113.742 16.5469C113.742 17.1719 113.57 17.625 113.227 17.9062C112.891 18.1797 112.484 18.3164 112.008 18.3164C111.531 18.3164 111.125 18.1797 110.789 17.9062C110.461 17.625 110.297 17.1719 110.297 16.5469Z" fill="#2E5BE5"/>
</svg>
