<svg width="149" height="28" viewBox="0 0 149 28" fill="none" xmlns="http://www.w3.org/2000/svg">
<g clip-path="url(#clip0_185_71)">
<path d="M20.4748 28C25.114 28 28.8748 24.2392 28.8748 19.6C28.8748 14.9608 25.114 11.2 20.4748 11.2C15.8356 11.2 12.0748 14.9608 12.0748 19.6C12.0748 24.2392 15.8356 28 20.4748 28Z" fill="#A1B2E6"/>
<path d="M9.275 28C13.9142 28 17.675 24.2392 17.675 19.6C17.675 14.9608 13.9142 11.2 9.275 11.2C4.63581 11.2 0.875 14.9608 0.875 19.6C0.875 24.2392 4.63581 28 9.275 28Z" fill="#738FE6"/>
<path d="M14.8753 16.8C19.5145 16.8 23.2753 13.0392 23.2753 8.4C23.2753 3.76081 19.5145 0 14.8753 0C10.2361 0 6.47534 3.76081 6.47534 8.4C6.47534 13.0392 10.2361 16.8 14.8753 16.8Z" fill="#2E5BE6"/>
<path d="M54.609 22.75H50.5586V11.0708H46.8979V7.75878H58.2593V11.0708H54.609V22.75ZM65.606 10.9272C66.734 10.9272 67.7081 11.1255 68.5285 11.522C69.3487 11.9116 69.981 12.4995 70.4253 13.2856C70.8698 14.0718 71.0919 15.0562 71.0919 16.2388V18.0229H63.9244C63.9585 18.6314 64.1841 19.1303 64.6011 19.52C65.025 19.9097 65.6471 20.1045 66.4673 20.1045C67.192 20.1045 67.8551 20.0328 68.4566 19.8891C69.065 19.7456 69.6905 19.5233 70.3331 19.2227V22.1041C69.7726 22.3979 69.1607 22.6133 68.4977 22.75C67.8346 22.8867 66.9972 22.9551 65.9854 22.9551C64.8165 22.9551 63.7706 22.7465 62.8478 22.3296C61.9248 21.9126 61.1969 21.2665 60.6636 20.3915C60.1372 19.5165 59.874 18.3921 59.874 17.0181C59.874 15.6235 60.1134 14.4785 60.5919 13.583C61.0703 12.6807 61.7404 12.0142 62.6016 11.5835C63.4629 11.146 64.4645 10.9272 65.606 10.9272ZM65.7497 13.6548C65.2779 13.6548 64.8815 13.8052 64.5602 14.106C64.2457 14.3999 64.0611 14.8647 64.0065 15.5005H67.4517C67.4449 15.1587 67.3766 14.8477 67.2466 14.5674C67.1168 14.2871 66.9253 14.0649 66.6724 13.9009C66.4264 13.7368 66.1187 13.6548 65.7497 13.6548ZM79.2385 10.9272C80.7081 10.9272 81.8567 11.293 82.6837 12.0244C83.5109 12.749 83.9244 13.7847 83.9244 15.1313V22.75H81.1456L80.3767 21.2119H80.2946C79.9665 21.6221 79.628 21.9571 79.2794 22.2168C78.9377 22.4696 78.5446 22.6543 78.1003 22.7705C77.656 22.8935 77.1124 22.9551 76.4698 22.9551C75.7999 22.9551 75.1984 22.8184 74.6652 22.5449C74.132 22.2715 73.7116 21.8579 73.404 21.3041C73.0963 20.7505 72.9425 20.0497 72.9425 19.2022C72.9425 17.958 73.3732 17.0352 74.2345 16.4336C75.0959 15.832 76.3435 15.4937 77.9773 15.4185L79.9152 15.3569V15.1929C79.9152 14.6733 79.7854 14.3042 79.5255 14.0855C79.2726 13.8667 78.9308 13.7573 78.5002 13.7573C78.0422 13.7573 77.5294 13.8393 76.9621 14.0034C76.4015 14.1606 75.8375 14.3657 75.2702 14.6187L74.1115 11.9731C74.7814 11.6313 75.5402 11.3716 76.3879 11.1938C77.2354 11.0161 78.1857 10.9272 79.2385 10.9272ZM79.9357 17.5616L79.0129 17.6025C78.2746 17.6298 77.755 17.7597 77.4542 17.9921C77.1603 18.2178 77.0133 18.5425 77.0133 18.9663C77.0133 19.3629 77.1192 19.6567 77.3312 19.8481C77.5431 20.0328 77.8234 20.125 78.172 20.125C78.6573 20.125 79.071 19.9712 79.4128 19.6635C79.7614 19.3559 79.9357 18.956 79.9357 18.4639V17.5616ZM101.043 10.9272C102.369 10.9272 103.381 11.2656 104.078 11.9424C104.782 12.6191 105.134 13.7026 105.134 15.1929V22.75H101.125V16.4336C101.125 15.5518 101.006 14.9399 100.766 14.5981C100.534 14.2495 100.185 14.0752 99.7203 14.0752C99.0711 14.0752 98.6197 14.3589 98.3669 14.9263C98.1208 15.4937 97.9978 16.2969 97.9978 17.3359V22.75H93.9782V16.4336C93.9782 15.873 93.9269 15.4219 93.8244 15.0801C93.7287 14.7314 93.5817 14.4785 93.3836 14.3213C93.1853 14.1572 92.9357 14.0752 92.6349 14.0752C92.1769 14.0752 91.818 14.2153 91.5583 14.4956C91.3054 14.769 91.1276 15.1724 91.0251 15.7056C90.9225 16.2388 90.8713 16.8916 90.8713 17.6641V22.75H86.862V11.1323H89.8869L90.4714 12.5679H90.5841C90.7892 12.2534 91.0524 11.9731 91.3737 11.727C91.7018 11.481 92.088 11.2861 92.5324 11.1426C92.9835 10.999 93.4963 10.9272 94.0704 10.9272C94.925 10.9272 95.6292 11.0708 96.1829 11.3579C96.7366 11.645 97.1877 12.0415 97.5363 12.5474H97.6593C98.0286 12.0278 98.5035 11.6279 99.0847 11.3477C99.6657 11.0674 100.318 10.9272 101.043 10.9272ZM114.563 22.75V7.75878H117.024V22.75H114.563ZM126.232 11.1836C127.51 11.1836 128.505 11.5151 129.216 12.1782C129.934 12.8345 130.293 13.8906 130.293 15.3467V22.75H127.883V15.7978C127.883 14.916 127.702 14.2563 127.34 13.8188C126.977 13.3745 126.417 13.1523 125.658 13.1523C124.557 13.1523 123.792 13.4907 123.361 14.1675C122.937 14.8442 122.725 15.8252 122.725 17.1103V22.75H120.316V11.3989H122.192L122.53 12.937H122.664C122.91 12.5405 123.214 12.2158 123.576 11.9629C123.945 11.7031 124.356 11.5083 124.807 11.3784C125.265 11.2485 125.74 11.1836 126.232 11.1836ZM137.819 22.9551C136.746 22.9551 135.817 22.7465 135.03 22.3296C134.244 21.9126 133.639 21.2733 133.215 20.4122C132.792 19.5508 132.58 18.4571 132.58 17.1309C132.58 15.75 132.812 14.6221 133.277 13.7471C133.742 12.8721 134.384 12.2261 135.205 11.8091C136.032 11.3921 136.979 11.1836 138.045 11.1836C138.722 11.1836 139.333 11.252 139.88 11.3887C140.434 11.5186 140.902 11.6792 141.285 11.8706L140.567 13.7983C140.15 13.6274 139.723 13.4839 139.286 13.3677C138.848 13.2515 138.428 13.1934 138.024 13.1934C137.361 13.1934 136.808 13.3403 136.363 13.6343C135.926 13.9282 135.598 14.3657 135.379 14.9468C135.167 15.5278 135.061 16.249 135.061 17.1103C135.061 17.9443 135.17 18.6483 135.389 19.2227C135.608 19.79 135.933 20.2207 136.363 20.5147C136.794 20.8017 137.324 20.9454 137.953 20.9454C138.575 20.9454 139.132 20.8701 139.624 20.7196C140.116 20.5693 140.581 20.3745 141.019 20.1353V22.2271C140.588 22.4731 140.127 22.6543 139.634 22.7705C139.142 22.8935 138.537 22.9551 137.819 22.9551ZM142.916 21.4784C142.916 20.9179 143.06 20.5249 143.347 20.2993C143.641 20.0669 143.996 19.9507 144.413 19.9507C144.83 19.9507 145.185 20.0669 145.479 20.2993C145.78 20.5249 145.931 20.9179 145.931 21.4784C145.931 22.0253 145.78 22.4219 145.479 22.6679C145.185 22.9071 144.83 23.0268 144.413 23.0268C143.996 23.0268 143.641 22.9071 143.347 22.6679C143.06 22.4219 142.916 22.0253 142.916 21.4784Z" fill="#2E5BE5"/>
</g>
<defs>
<clipPath id="clip0_185_71">
<rect width="148.75" height="28" fill="white"/>
</clipPath>
</defs>
</svg>
