<svg width="85" height="16" viewBox="0 0 85 16" fill="none" xmlns="http://www.w3.org/2000/svg">
<circle cx="11.6999" cy="11.2" r="4.8" fill="#A1B2E6"/>
<circle cx="5.3" cy="11.2" r="4.8" fill="#738FE6"/>
<circle cx="8.50019" cy="4.8" r="4.8" fill="#2E5BE6"/>
<path d="M31.2051 13H28.8906V6.32617H26.7988V4.43359H33.291V6.32617H31.2051V13ZM37.4891 6.24414C38.1337 6.24414 38.6903 6.35742 39.1591 6.58398C39.6278 6.80664 39.9891 7.14258 40.243 7.5918C40.497 8.04102 40.6239 8.60352 40.6239 9.2793V10.2988H36.5282C36.5477 10.6465 36.6766 10.9316 36.9149 11.1543C37.1571 11.377 37.5126 11.4883 37.9813 11.4883C38.3954 11.4883 38.7743 11.4473 39.118 11.3652C39.4657 11.2832 39.8231 11.1562 40.1903 10.9844V12.6309C39.87 12.7988 39.5204 12.9219 39.1415 13C38.7626 13.0781 38.2841 13.1172 37.7059 13.1172C37.038 13.1172 36.4403 12.998 35.913 12.7598C35.3856 12.5215 34.9696 12.1523 34.6649 11.6523C34.3641 11.1523 34.2137 10.5098 34.2137 9.72461C34.2137 8.92773 34.3505 8.27344 34.6239 7.76172C34.8973 7.24609 35.2802 6.86523 35.7723 6.61914C36.2645 6.36914 36.8368 6.24414 37.4891 6.24414ZM37.5712 7.80273C37.3016 7.80273 37.0751 7.88867 36.8915 8.06055C36.7118 8.22852 36.6063 8.49414 36.5751 8.85742H38.5438C38.5399 8.66211 38.5009 8.48438 38.4266 8.32422C38.3524 8.16406 38.243 8.03711 38.0985 7.94336C37.9579 7.84961 37.7821 7.80273 37.5712 7.80273ZM45.2791 6.24414C46.1189 6.24414 46.7752 6.45312 47.2478 6.87109C47.7205 7.28516 47.9568 7.87695 47.9568 8.64648V13H46.3689L45.9295 12.1211H45.8826C45.6951 12.3555 45.5017 12.5469 45.3025 12.6953C45.1072 12.8398 44.8826 12.9453 44.6287 13.0117C44.3748 13.082 44.0642 13.1172 43.697 13.1172C43.3142 13.1172 42.9705 13.0391 42.6658 12.8828C42.3611 12.7266 42.1209 12.4902 41.9451 12.1738C41.7693 11.8574 41.6814 11.457 41.6814 10.9727C41.6814 10.2617 41.9275 9.73438 42.4197 9.39062C42.9119 9.04688 43.6248 8.85352 44.5584 8.81055L45.6658 8.77539V8.68164C45.6658 8.38477 45.5916 8.17383 45.4431 8.04883C45.2986 7.92383 45.1033 7.86133 44.8572 7.86133C44.5955 7.86133 44.3025 7.9082 43.9783 8.00195C43.658 8.0918 43.3357 8.20898 43.0115 8.35352L42.3494 6.8418C42.7322 6.64648 43.1658 6.49805 43.6502 6.39648C44.1345 6.29492 44.6775 6.24414 45.2791 6.24414ZM45.6775 10.0352L45.1502 10.0586C44.7283 10.0742 44.4314 10.1484 44.2595 10.2812C44.0916 10.4102 44.0076 10.5957 44.0076 10.8379C44.0076 11.0645 44.0681 11.2324 44.1892 11.3418C44.3103 11.4473 44.4705 11.5 44.6697 11.5C44.947 11.5 45.1834 11.4121 45.3787 11.2363C45.5779 11.0605 45.6775 10.832 45.6775 10.5508V10.0352ZM57.7389 6.24414C58.4967 6.24414 59.0748 6.4375 59.4733 6.82422C59.8756 7.21094 60.0768 7.83008 60.0768 8.68164V13H57.7858V9.39062C57.7858 8.88672 57.7174 8.53711 57.5807 8.3418C57.4479 8.14258 57.2487 8.04297 56.983 8.04297C56.612 8.04297 56.3541 8.20508 56.2096 8.5293C56.069 8.85352 55.9987 9.3125 55.9987 9.90625V13H53.7018V9.39062C53.7018 9.07031 53.6725 8.8125 53.6139 8.61719C53.5592 8.41797 53.4752 8.27344 53.362 8.18359C53.2487 8.08984 53.1061 8.04297 52.9342 8.04297C52.6725 8.04297 52.4674 8.12305 52.319 8.2832C52.1745 8.43945 52.0729 8.66992 52.0143 8.97461C51.9557 9.2793 51.9264 9.65234 51.9264 10.0938V13H49.6354V6.36133H51.3639L51.6979 7.18164H51.7623C51.8795 7.00195 52.0299 6.8418 52.2135 6.70117C52.401 6.56055 52.6217 6.44922 52.8756 6.36719C53.1334 6.28516 53.4264 6.24414 53.7545 6.24414C54.2428 6.24414 54.6452 6.32617 54.9616 6.49023C55.278 6.6543 55.5358 6.88086 55.735 7.16992H55.8053C56.0163 6.87305 56.2877 6.64453 56.6198 6.48438C56.9518 6.32422 57.3248 6.24414 57.7389 6.24414ZM65.4644 13V4.43359H66.8706V13H65.4644ZM72.1326 6.39062C72.863 6.39062 73.4314 6.58008 73.8377 6.95898C74.2478 7.33398 74.4529 7.9375 74.4529 8.76953V13H73.0759V9.02734C73.0759 8.52344 72.9724 8.14648 72.7654 7.89648C72.5584 7.64258 72.238 7.51562 71.8045 7.51562C71.1755 7.51562 70.738 7.70898 70.492 8.0957C70.2498 8.48242 70.1287 9.04297 70.1287 9.77734V13H68.7517V6.51367H69.824L70.0173 7.39258H70.0935C70.2341 7.16602 70.408 6.98047 70.615 6.83594C70.8259 6.6875 71.0603 6.57617 71.3181 6.50195C71.5798 6.42773 71.8513 6.39062 72.1326 6.39062ZM78.7539 13.1172C78.1406 13.1172 77.6094 12.998 77.1602 12.7598C76.7109 12.5215 76.3652 12.1562 76.123 11.6641C75.8809 11.1719 75.7598 10.5469 75.7598 9.78906C75.7598 9 75.8926 8.35547 76.1582 7.85547C76.4238 7.35547 76.791 6.98633 77.2598 6.74805C77.7324 6.50977 78.2734 6.39062 78.8828 6.39062C79.2695 6.39062 79.6191 6.42969 79.9316 6.50781C80.248 6.58203 80.5156 6.67383 80.7344 6.7832L80.3242 7.88477C80.0859 7.78711 79.8418 7.70508 79.5918 7.63867C79.3418 7.57227 79.1016 7.53906 78.8711 7.53906C78.4922 7.53906 78.1758 7.62305 77.9219 7.79102C77.6719 7.95898 77.4844 8.20898 77.3594 8.54102C77.2383 8.87305 77.1777 9.28516 77.1777 9.77734C77.1777 10.2539 77.2402 10.6562 77.3652 10.9844C77.4902 11.3086 77.6758 11.5547 77.9219 11.7227C78.168 11.8867 78.4707 11.9688 78.8301 11.9688C79.1855 11.9688 79.5039 11.9258 79.7852 11.8398C80.0664 11.7539 80.332 11.6426 80.582 11.5059V12.7012C80.3359 12.8418 80.0723 12.9453 79.791 13.0117C79.5098 13.082 79.1641 13.1172 78.7539 13.1172ZM81.6662 12.2734C81.6662 11.9531 81.7483 11.7285 81.9123 11.5996C82.0803 11.4668 82.2834 11.4004 82.5217 11.4004C82.76 11.4004 82.9631 11.4668 83.1311 11.5996C83.303 11.7285 83.3889 11.9531 83.3889 12.2734C83.3889 12.5859 83.303 12.8125 83.1311 12.9531C82.9631 13.0898 82.76 13.1582 82.5217 13.1582C82.2834 13.1582 82.0803 13.0898 81.9123 12.9531C81.7483 12.8125 81.6662 12.5859 81.6662 12.2734Z" fill="#2E5BE5"/>
</svg>
